<svg xmlns="http://www.w3.org/2000/svg" viewBox="0 0 1080 720"><defs><style>.a{opacity:0.75;}.b{fill:#00a9d0;}</style></defs><title>clip</title><g class="a"><path class="b" d="M0,0V720H1080V0ZM515.24,256.63c0-4.4,2.33-6.71,6.72-6.71h43.47c4.39,0,6.71,2.31,6.71,6.71v4.89c0,4.39-2.32,6.73-6.71,6.73H536.62V284.1h22.09c4.39,0,6.72,2.33,6.72,6.72v4.9c0,4.39-2.33,6.71-6.72,6.71H536.62v16.48h30.52c4.39,0,6.71,2.32,6.71,6.73v4.88c0,4.4-2.32,6.72-6.71,6.72H522c-4.39,0-6.72-2.32-6.72-6.72ZM353.37,464c0,2.62-1.48,4.1-4.11,4.1h-56.8c-2.62,0-3.94-1.48-3.94-4.1V356.81c0-2.63,1.32-4.11,3.94-4.11h3.45c2.46,0,3.94,1.48,3.94,4.11V457.93h49.41a3.73,3.73,0,0,1,4.11,4.11Zm26.76,0c0,2.62-1.48,4.1-3.94,4.1h-3.45c-2.63,0-3.94-1.48-3.94-4.1V356.81c0-2.63,1.31-4.11,3.94-4.11h3.45c2.46,0,3.94,1.48,3.94,4.11ZM390,274.66c-.2,2.83-1.18,4.31-4.51,6l-27.87,13.23,27.1,12.88c4,1.91,5.06,3.39,5.28,6.43v23.93H287V313.25c.22-3,1.33-4.52,5.28-6.43l27.1-12.88-27.86-13.23c-3.33-1.74-4.31-3.22-4.52-6v-24H390ZM499.47,464c0,2.62-1.31,4.1-3.94,4.1h-2.29c-2.63,0-4.11-1.48-4.11-3.61v-5.91c0-2.13.17-4.27.17-4.27H489s-13.14,15.76-37.6,15.76c-31.68,0-56.63-25.44-56.63-59.59,0-33.65,24.95-59.76,58.28-59.76,19.69,0,33,7.55,37.92,11,2.13,1.65,2.3,3.62.65,5.59l-1.47,2.13c-1.48,2.13-3.45,2.46-5.59,1a57.94,57.94,0,0,0-31.19-9c-27.9,0-46.78,21.51-46.78,48.76,0,28.24,19.53,49.25,45.8,49.25,23.15,0,36.44-16.91,36.44-16.91V423.13H473c-2.62,0-3.94-1.48-3.94-4.1v-2c0-2.63,1.32-4.11,3.94-4.11h22.49c2.63,0,3.94,1.48,3.94,4.11Zm.66-133.5c0,4.41-2.31,6.73-6.71,6.73h-7.94c-4.4,0-6.72-2.32-6.72-6.73V296.57c0-5.49,1-14.9,1-14.9h-.24l-16.84,30.79a7.34,7.34,0,0,1-6.35,3.06h-2.13a7.37,7.37,0,0,1-6.33-3L431,281.67h-.24s1,9.41,1,14.9v33.94c0,4.41-2.32,6.73-6.72,6.73h-7.94c-4.4,0-6.72-2.32-6.72-6.73V256.63c0-4.4,2.32-6.71,6.72-6.71h9.53c3.79,0,6.22,1.32,8.06,4.52l20.59,34.74,20.59-34.74c1.83-3.2,4.28-4.52,8.06-4.52h9.53c4.4,0,6.71,2.31,6.71,6.71Zm102.6,137.6h-3.61a4.3,4.3,0,0,1-4.6-3.28l-12.31-33.49H535.92l-12.15,33.49a4.3,4.3,0,0,1-4.6,3.28h-3.44c-3.12,0-4.27-1.8-3.45-4.76L552,356a4.23,4.23,0,0,1,4.43-3.29h5.42a4.24,4.24,0,0,1,4.43,3.29L606,463.35C606.84,466.31,605.69,468.11,602.73,468.11Zm5.11-137.59V268.25H588.06c-4.4,0-6.72-2.34-6.72-6.73v-4.89c0-4.4,2.32-6.71,6.72-6.71h61c4.4,0,6.71,2.31,6.71,6.71v4.89c0,4.39-2.31,6.73-6.71,6.73H629.22v62.27c0,4.4-2.32,6.72-6.72,6.72h-7.94C610.17,337.24,607.84,334.92,607.84,330.52ZM686.62,464a3.72,3.72,0,0,1-4.1,4.1H622.6c-2.63,0-3.94-1.48-3.94-4.1V356.81c0-2.63,1.31-4.11,3.94-4.11h57a3.73,3.73,0,0,1,4.11,4.11v2c0,2.62-1.48,4.1-4.11,4.1H630v42h39.73c2.63,0,4.11,1.31,4.11,3.94V411a3.73,3.73,0,0,1-4.11,4.11H630v42.84h52.54c2.62,0,4.1,1.48,4.1,4.11Zm-12.71-145.1-3.67,12.71c-1.1,3.78-3.55,5.61-7.45,5.61h-8.06c-4.89,0-7.08-3-5.5-7.68l25.28-74.14c1.23-3.8,3.67-5.49,7.58-5.49h11c3.91,0,6.35,1.69,7.58,5.49l25.27,74.14c1.59,4.64-.6,7.68-5.49,7.68h-8.06c-3.91,0-6.35-1.83-7.57-5.61l-3.67-12.71ZM793,464c0,2.62-1.31,4.1-3.94,4.1h-3.94a5.19,5.19,0,0,1-4.76-2.62L723.07,385c-3.94-5.74-9.53-15.59-9.53-15.59h-.32s1,9.52,1,15.59v79c0,2.62-1.48,4.1-3.94,4.1h-3.45c-2.62,0-3.94-1.48-3.94-4.1V356.81c0-2.63,1.32-4.11,3.94-4.11h3.94a5.62,5.62,0,0,1,4.93,2.63l57.13,80.44c3.94,5.75,9.52,15.6,9.52,15.6h.33s-1-9.52-1-15.6v-79a3.73,3.73,0,0,1,4.11-4.11h3.28c2.63,0,3.94,1.48,3.94,4.11Zm0-133.49c0,4.4-2.32,6.72-6.71,6.72H742.68c-4.4,0-6.72-2.32-6.72-6.72V256.63c0-4.4,2.32-6.71,6.72-6.71h7.94c4.39,0,6.72,2.31,6.72,6.71v62.28h28.95c4.39,0,6.71,2.32,6.71,6.73Z"/><path class="b" d="M687.7,269.82h-.24s-2,9.52-3.54,15l-5,17h17.22l-4.89-17C689.66,279.34,687.7,269.82,687.7,269.82Z"/><polygon class="b" points="372.49 268.71 372.49 266.69 304.51 266.69 304.51 268.71 338.5 284.86 372.49 268.71"/><path class="b" d="M559.39,364.52h-.32s-2.63,9.69-4.44,15.11L539.2,421.49h39.73l-15.27-41.86C561.86,374.21,559.39,364.52,559.39,364.52Z"/><polygon class="b" points="304.51 319.18 304.51 321.2 372.49 321.2 372.49 319.18 338.5 303.03 304.51 319.18"/></g></svg>